<mxfile host="app.diagrams.net" modified="2021-10-22T00:45:57.938Z" agent="5.0 (Windows NT 10.0; Win64; x64) AppleWebKit/537.36 (KHTML, like Gecko) Chrome/94.0.4606.81 Safari/537.36" etag="-lzvdY9xQDQZ3TRu5iBN" version="15.5.6" type="github">
  <diagram id="kthd05MuvMmhZ2pC5foy" name="第 1 页">
    <mxGraphModel dx="1038" dy="539" grid="1" gridSize="10" guides="1" tooltips="1" connect="1" arrows="1" fold="1" page="1" pageScale="1" pageWidth="827" pageHeight="1169" math="0" shadow="0">
      <root>
        <mxCell id="0" />
        <mxCell id="1" parent="0" />
        <mxCell id="WhexwMvRRhk9ZfO4Mqza-3" value="" style="edgeStyle=orthogonalEdgeStyle;rounded=0;orthogonalLoop=1;jettySize=auto;html=1;" edge="1" parent="1" source="WhexwMvRRhk9ZfO4Mqza-1" target="WhexwMvRRhk9ZfO4Mqza-2">
          <mxGeometry relative="1" as="geometry" />
        </mxCell>
        <mxCell id="WhexwMvRRhk9ZfO4Mqza-1" value="S" style="ellipse;whiteSpace=wrap;html=1;aspect=fixed;" vertex="1" parent="1">
          <mxGeometry x="190" y="160" width="80" height="80" as="geometry" />
        </mxCell>
        <mxCell id="WhexwMvRRhk9ZfO4Mqza-5" value="" style="edgeStyle=orthogonalEdgeStyle;rounded=0;orthogonalLoop=1;jettySize=auto;html=1;" edge="1" parent="1" source="WhexwMvRRhk9ZfO4Mqza-2" target="WhexwMvRRhk9ZfO4Mqza-4">
          <mxGeometry relative="1" as="geometry">
            <Array as="points">
              <mxPoint x="470" y="360" />
            </Array>
          </mxGeometry>
        </mxCell>
        <mxCell id="WhexwMvRRhk9ZfO4Mqza-10" style="edgeStyle=orthogonalEdgeStyle;rounded=0;orthogonalLoop=1;jettySize=auto;html=1;exitX=0;exitY=1;exitDx=0;exitDy=0;entryX=1;entryY=1;entryDx=0;entryDy=0;" edge="1" parent="1" source="WhexwMvRRhk9ZfO4Mqza-2" target="WhexwMvRRhk9ZfO4Mqza-1">
          <mxGeometry relative="1" as="geometry" />
        </mxCell>
        <mxCell id="WhexwMvRRhk9ZfO4Mqza-2" value="B" style="ellipse;whiteSpace=wrap;html=1;aspect=fixed;" vertex="1" parent="1">
          <mxGeometry x="440" y="160" width="80" height="80" as="geometry" />
        </mxCell>
        <mxCell id="WhexwMvRRhk9ZfO4Mqza-4" value="f" style="ellipse;whiteSpace=wrap;html=1;aspect=fixed;" vertex="1" parent="1">
          <mxGeometry x="310" y="320" width="80" height="80" as="geometry" />
        </mxCell>
        <mxCell id="WhexwMvRRhk9ZfO4Mqza-6" value="0" style="text;html=1;align=center;verticalAlign=middle;resizable=0;points=[];autosize=1;strokeColor=none;fillColor=none;" vertex="1" parent="1">
          <mxGeometry x="340" y="180" width="20" height="20" as="geometry" />
        </mxCell>
        <mxCell id="WhexwMvRRhk9ZfO4Mqza-7" style="edgeStyle=orthogonalEdgeStyle;rounded=0;orthogonalLoop=1;jettySize=auto;html=1;exitX=0.5;exitY=0;exitDx=0;exitDy=0;entryX=1;entryY=0.5;entryDx=0;entryDy=0;" edge="1" parent="1" source="WhexwMvRRhk9ZfO4Mqza-2" target="WhexwMvRRhk9ZfO4Mqza-2">
          <mxGeometry relative="1" as="geometry">
            <Array as="points">
              <mxPoint x="480" y="110" />
              <mxPoint x="570" y="110" />
              <mxPoint x="570" y="200" />
            </Array>
          </mxGeometry>
        </mxCell>
        <mxCell id="WhexwMvRRhk9ZfO4Mqza-8" value="0" style="text;html=1;align=center;verticalAlign=middle;resizable=0;points=[];autosize=1;strokeColor=none;fillColor=none;" vertex="1" parent="1">
          <mxGeometry x="520" y="90" width="20" height="20" as="geometry" />
        </mxCell>
        <mxCell id="WhexwMvRRhk9ZfO4Mqza-9" value="0" style="text;html=1;align=center;verticalAlign=middle;resizable=0;points=[];autosize=1;strokeColor=none;fillColor=none;" vertex="1" parent="1">
          <mxGeometry x="470" y="300" width="20" height="20" as="geometry" />
        </mxCell>
        <mxCell id="WhexwMvRRhk9ZfO4Mqza-11" value="1" style="text;html=1;align=center;verticalAlign=middle;resizable=0;points=[];autosize=1;strokeColor=none;fillColor=none;" vertex="1" parent="1">
          <mxGeometry x="350" y="210" width="20" height="20" as="geometry" />
        </mxCell>
      </root>
    </mxGraphModel>
  </diagram>
</mxfile>
